:FULLY-SPECIFIED
:FORCE-ALL-JOINTS-BE-3DOF
:DEGREES
388
root 9.45612 17.0573 18.1257 5.81588 -0.0581616 -5.7882
lfemur -41.7374 -0.0297024 -12.6232
ltibia 32.9211 0 0
lfoot -17.0426 13.0172 0
ltoes -13.6628 0 0
rfemur 3.2662 6.34028 32.2476
rtibia 13.2844 0 0
rfoot -15.8707 5.02034 0
rtoes -15.076 0 0
lowerback -6.39966 2.35278 2.24065
upperback 0.1025 2.81723 3.63091
thorax 3.62357 1.41153 2.78585
lowerneck -19.6686 -6.19005 -12.9247
upperneck 21.693 -7.95239 12.6251
head 11.3685 -3.21004 5.56479
lclavicle -2.0902e-14 -8.42428e-15 0
lhumerus -50.4913 -11.4775 95.3473
lradius 27.163 0 0
lwrist 9.01731 0 0
lhand -11.3862 -22.2848 0
lfingers 7.12502 0 0
lthumb 14.6482 7.17343 0
rclavicle -2.0902e-14 -8.42428e-15 0
rhumerus -27.4141 18.1399 -83.3855
rradius 43.5124 0 0
rwrist -22.1782 0 0
rhand -31.3571 -24.426 0
rfingers 7.12502 0 0
rthumb -4.62796 -54.3543 0
389
root 9.4671 17.0496 18.2569 5.84946 -0.25327 -5.98004
lfemur -41.8833 -0.67761 -11.9693
ltibia 31.3579 0 0
lfoot -17.2218 13.4157 0
ltoes -13.7682 0 0
rfemur 4.42328 6.36334 32.4011
rtibia 11.9289 0 0
rfoot -15.3489 5.2227 0
rtoes -14.4474 0 0
lowerback -6.51007 2.46113 2.3856
upperback 0.140749 2.94096 3.69378
thorax 3.72641 1.47478 2.78953
lowerneck -19.6232 -6.18534 -12.9813
upperneck 21.6582 -7.93858 12.6594
head 11.3487 -3.2062 5.5892
lclavicle -1.97667e-14 -7.36968e-15 0
lhumerus -50.7821 -11.2822 95.4327
lradius 27.2011 0 0
lwrist 8.98358 0 0
lhand -11.2085 -22.2273 0
lfingers 7.12502 0 0
lthumb 14.8193 7.21834 0
rclavicle -1.97667e-14 -7.36968e-15 0
rhumerus -27.1485 18.0171 -83.4009
rradius 43.279 0 0
rwrist -22.0025 0 0
rhand -31.2484 -24.1869 0
rfingers 7.12502 0 0
rthumb -4.523 -54.1173 0
390
root 9.47848 17.0417 18.3892 5.88598 -0.439862 -6.16771
lfemur -42.0063 -1.31742 -11.3206
ltibia 29.8253 0 0
lfoot -17.3737 13.8087 0
ltoes -13.8501 0 0
rfemur 5.57652 6.3818 32.546
rtibia 10.577 0 0
rfoot -14.8013 5.4207 0
rtoes -13.8195 0 0
lowerback -6.62264 2.56562 2.52682
upperback 0.175911 3.0599 3.75465
thorax 3.82754 1.53563 2.79288
lowerneck -19.5775 -6.18122 -13.0402
upperneck 21.6222 -7.92567 12.697
head 11.3288 -3.20261 5.6151
lclavicle -1.85589e-14 -6.29369e-15 0
lhumerus -51.0625 -11.0948 95.5214
lradius 27.2344 0 0
lwrist 8.94271 0 0
lhand -11.029 -22.168 0
lfingers 7.12502 0 0
lthumb 14.9923 7.26491 0
rclavicle -1.85589e-14 -6.29369e-15 0
rhumerus -26.9046 17.882 -83.4231
rradius 43.0313 0 0
rwrist -21.8197 0 0
rhand -31.1358 -23.9499 0
rfingers 7.12502 0 0
rthumb -4.41428 -53.8826 0
391
root 9.49029 17.0335 18.5227 5.92531 -0.616947 -6.34902
lfemur -42.1104 -1.94087 -10.6876
ltibia 28.3389 0 0
lfoot -17.4942 14.1897 0
ltoes -13.9055 0 0
rfemur 6.71976 6.39495 32.6803
rtibia 9.24118 0 0
rfoot -14.2302 5.61202 0
rtoes -13.2039 0 0
lowerback -6.73637 2.66577 2.66269
upperback 0.207338 3.17369 3.81249
thorax 3.92562 1.59387 2.79555
lowerneck -19.5322 -6.17795 -13.1009
upperneck 21.5858 -7.91411 12.7373
head 11.3094 -3.19945 5.64215
lclavicle -1.73045e-14 -5.21475e-15 0
lhumerus -51.3309 -10.9144 95.6102
lradius 27.2614 0 0
lwrist 8.89334 0 0
lhand -10.8488 -22.1081 0
lfingers 7.12502 0 0
lthumb 15.1659 7.31189 0
rclavicle -1.73045e-14 -5.21475e-15 0
rhumerus -26.6849 17.7356 -83.4526
rradius 42.7713 0 0
rwrist -21.6304 0 0
rhand -31.0207 -23.7181 0
rfingers 7.12502 0 0
rthumb -4.30318 -53.653 0
392
root 9.50255 17.0251 18.6576 5.96732 -0.783541 -6.52178
lfemur -42.1997 -2.53967 -10.0809
ltibia 26.9143 0 0
lfoot -17.5792 14.5522 0
ltoes -13.9318 0 0
rfemur 7.84686 6.40211 32.8023
rtibia 7.93392 0 0
rfoot -13.6379 5.79434 0
rtoes -12.6124 0 0
lowerback -6.85022 2.76111 2.7916
upperback 0.234384 3.28196 3.86624
thorax 4.01935 1.64929 2.79723
lowerneck -19.4878 -6.17578 -13.1627
upperneck 21.55 -7.90432 12.78
head 11.2909 -3.19691 5.67
lclavicle -1.60294e-14 -4.15126e-15 0
lhumerus -51.5858 -10.7401 95.6962
lradius 27.2806 0 0
lwrist 8.83409 0 0
lhand -10.6689 -22.0491 0
lfingers 7.12502 0 0
lthumb 15.3392 7.35805 0
rclavicle -1.60294e-14 -4.15126e-15 0
rhumerus -26.4919 17.5789 -83.4898
rradius 42.501 0 0
rwrist -21.4352 0 0
rhand -30.9046 -23.4943 0
rfingers 7.12502 0 0
rthumb -4.19103 -53.4315 0
393
root 9.5153 17.0166 18.7939 6.01187 -0.938653 -6.6838
lfemur -42.2783 -3.10555 -9.51088
ltibia 25.5671 0 0
lfoot -17.6247 14.8896 0
ltoes -13.9261 0 0
rfemur 8.95169 6.40259 32.91
rtibia 6.66767 0 0
rfoot -13.0268 5.96535 0
rtoes -12.0565 0 0
lowerback -6.96319 2.85116 2.91192
upperback 0.2564 3.38432 3.91485
thorax 4.1074 1.7017 2.79759
lowerneck -19.4451 -6.17497 -13.2252
upperneck 21.5154 -7.89675 12.8243
head 11.2736 -3.19517 5.69831
lclavicle -1.47592e-14 -3.12164e-15 0
lhumerus -51.8258 -10.5711 95.7761
lradius 27.2907 0 0
lwrist 8.76359 0 0
lhand -10.4906 -21.9921 0
lfingers 7.12502 0 0
lthumb 15.511 7.40212 0
rclavicle -1.47592e-14 -3.12164e-15 0
rhumerus -26.3284 17.4131 -83.5354
rradius 42.2224 0 0
rwrist -21.2347 0 0
rhand -30.7888 -23.2814 0
rfingers 7.12502 0 0
rthumb -4.07918 -53.221 0
394
root 9.52855 17.008 18.932 6.05883 -1.0813 -6.83288
lfemur -42.3504 -3.63023 -8.98809
ltibia 24.3129 0 0
lfoot -17.6265 15.1953 0
ltoes -13.8857 0 0
rfemur 10.0281 6.39569 33.0015
rtibia 5.45492 0 0
rfoot -12.3994 6.12274 0
rtoes -11.5479 0 0
lowerback -7.07425 2.93545 3.02205
upperback 0.272738 3.48041 3.95729
thorax 4.18845 1.75087 2.7963
lowerneck -19.4046 -6.17578 -13.2877
upperneck 21.4831 -7.89181 12.8699
head 11.2582 -3.19443 5.72673
lclavicle -1.35198e-14 -2.14431e-15 0
lhumerus -52.0493 -10.4066 95.8469
lradius 27.2902 0 0
lwrist 8.68047 0 0
lhand -10.3149 -21.9386 0
lfingers 7.12502 0 0
lthumb 15.6802 7.44287 0
rclavicle -1.35198e-14 -2.14431e-15 0
rhumerus -26.1967 17.2391 -83.5897
rradius 41.9376 0 0
rwrist -21.0296 0 0
rhand -30.6747 -23.0825 0
rfingers 7.12502 0 0
rthumb -3.96901 -53.0242 0
395
root 9.54234 16.9993 19.0719 6.10808 -1.21049 -6.96684
lfemur -42.4199 -4.10544 -8.52301
ltibia 23.1673 0 0
lfoot -17.5807 15.4629 0
ltoes -13.8077 0 0
rfemur 11.0699 6.38071 33.0751
rtibia 4.30812 0 0
rfoot -11.7578 6.2642 0
rtoes -11.0983 0 0
lowerback -7.18238 3.0135 3.12037
upperback 0.282752 3.56985 3.9925
thorax 4.26118 1.79661 2.79302
lowerneck -19.3669 -6.17846 -13.3497
upperneck 21.4538 -7.88996 12.9163
head 11.245 -3.19485 5.75494
lclavicle -1.2337e-14 -1.23769e-15 0
lhumerus -52.2549 -10.2456 95.9056
lradius 27.2776 0 0
lwrist 8.58334 0 0
lhand -10.1429 -21.8899 0
lfingers 7.12502 0 0
lthumb 15.8459 7.47905 0
rclavicle -1.2337e-14 -1.23769e-15 0
rhumerus -26.0996 17.0581 -83.6534
rradius 41.6486 0 0
rwrist -20.8206 0 0
rhand -30.5637 -22.9003 0
rfingers 7.12502 0 0
rthumb -3.86184 -52.8442 0
396
root 9.55668 16.9905 19.2137 6.15947 -1.32523 -7.08349
lfemur -42.4911 -4.52291 -8.12612
ltibia 22.1459 0 0
lfoot -17.483 15.6857 0
ltoes -13.6894 0 0
rfemur 12.071 6.35698 33.1288
rtibia 3.23975 0 0
rfoot -11.1045 6.3874 0
rtoes -10.7193 0 0
lowerback -7.28657 3.08483 3.20525
upperback 0.285792 3.65226 4.01943
thorax 4.32427 1.83872 2.78744
lowerneck -19.3326 -6.18329 -13.4106
upperneck 21.4285 -7.89162 12.9628
head 11.2345 -3.19664 5.78257
lclavicle -1.12367e-14 -4.20186e-16 0
lhumerus -52.441 -10.0873 95.9491
lradius 27.2516 0 0
lwrist 8.47084 0 0
lhand -9.9757 -21.8472 0
lfingers 7.12502 0 0
lthumb 16.0069 7.5094 0
rclavicle -1.12367e-14 -4.20186e-16 0
rhumerus -26.0396 16.8712 -83.7269
rradius 41.3574 0 0
rwrist -20.6082 0 0
rhand -30.4573 -22.7379 0
rfingers 7.12502 0 0
rthumb -3.75905 -52.6839 0
397
root 9.57161 16.9818 19.3576 6.21288 -1.42455 -7.18063
lfemur -42.568 -4.87436 -7.80792
ltibia 21.2644 0 0
lfoot -17.3295 15.8573 0
ltoes -13.528 0 0
rfemur 13.0252 6.32378 33.1608
rtibia 2.26228 0 0
rfoot -10.4419 6.49003 0
rtoes -10.4225 0 0
lowerback -7.38579 3.14897 3.27509
upperback 0.281212 3.72727 4.03704
thorax 4.37639 1.87697 2.77921
lowerneck -19.3023 -6.19051 -13.4698
upperneck 21.4078 -7.89723 13.0091
head 11.2272 -3.19998 5.8093
lclavicle -1.02445e-14 2.89779e-16 0
lhumerus -52.6063 -9.9309 95.9742
lradius 27.2106 0 0
lwrist 8.3416 0 0
lhand -9.81447 -21.812 0
lfingers 7.12502 0 0
lthumb 16.1622 7.5327 0
rclavicle -1.02445e-14 2.89779e-16 0
rhumerus -26.0193 16.6793 -83.8108
rradius 41.0659 0 0
rwrist -20.393 0 0
rhand -30.3567 -22.5981 0
rfingers 7.12502 0 0
rthumb -3.66197 -52.546 0
398
root 9.58715 16.9731 19.5038 6.26818 -1.50745 -7.25608
lfemur -42.6546 -5.15151 -7.5789
ltibia 20.5382 0 0
lfoot -17.116 15.971 0
ltoes -13.3208 0 0
rfemur 13.9265 6.28044 33.1692
rtibia 1.38819 0 0
rfoot -9.7722 6.56979 0
rtoes -10.2197 0 0
lowerback -7.47903 3.20546 3.32826
upperback 0.268363 3.79451 4.04428
thorax 4.41624 1.91118 2.76802
lowerneck -19.2767 -6.20039 -13.5268
upperneck 21.3928 -7.90721 13.0545
head 11.2234 -3.20505 5.83477
lclavicle -9.38626e-15 8.7379e-16 0
lhumerus -52.7493 -9.77548 95.9779
lradius 27.1533 0 0
lwrist 8.19423 0 0
lhand -9.6603 -21.7854 0
lfingers 7.12502 0 0
lthumb 16.3107 7.54767 0
rclavicle -9.38626e-15 8.7379e-16 0
rhumerus -26.0413 16.4836 -83.9055
rradius 40.7763 0 0
rwrist -20.1757 0 0
rhand -30.2635 -22.4839 0
rfingers 7.12502 0 0
rthumb -3.57197 -52.4335 0
399
root 9.60331 16.9645 19.6524 6.32523 -1.57294 -7.30764
lfemur -42.7552 -5.34609 -7.44955
ltibia 19.9831 0 0
lfoot -16.8385 16.0204 0
ltoes -13.0648 0 0
rfemur 14.7685 6.22625 33.1521
rtibia 0.629936 0 0
rfoot -9.09789 6.62435 0
rtoes -10.1225 0 0
lowerback -7.56527 3.2538 3.36316
upperback 0.246598 3.8536 4.04011
thorax 4.44248 1.94112 2.75353
lowerneck -19.2563 -6.21318 -13.5809
upperneck 21.3843 -7.92202 13.0986
head 11.2238 -3.21203 5.85864
lclavicle -8.68785e-15 1.31343e-15 0
lhumerus -52.8684 -9.62021 95.9571
lradius 27.0782 0 0
lwrist 8.02737 0 0
lhand -9.51429 -21.7689 0
lfingers 7.12502 0 0
lthumb 16.4513 7.5531 0
rclavicle -8.68785e-15 1.31343e-15 0
rhumerus -26.1081 16.2852 -84.0116
rradius 40.4906 0 0
rwrist -19.957 0 0
rhand -30.179 -22.3982 0
rfingers 7.12502 0 0
rthumb -3.4904 -52.3493 0
